<svg width="20.000000" height="20.000000" viewBox="0 0 20 20" fill="none" xmlns="http://www.w3.org/2000/svg" xmlns:xlink="http://www.w3.org/1999/xlink">
	<desc>
			Created with Pixso.
	</desc>
	<defs>
		<clipPath id="clip45_538">
			<rect id="icon-park-outline:cd" width="20.000000" height="20.000000" fill="white" fill-opacity="0"/>
		</clipPath>
	</defs>
	<rect id="icon-park-outline:cd" width="20.000000" height="20.000000" fill="#FFFFFF" fill-opacity="0"/>
	<g clip-path="url(#clip45_538)">
		<path id="Vector" d="M10 17.5C5.85 17.5 2.5 14.14 2.5 10C2.5 5.85 5.85 2.5 10 2.5C14.14 2.5 17.5 5.85 17.5 10C17.5 14.14 14.14 17.5 10 17.5Z" stroke="#101828" stroke-opacity="1.000000" stroke-width="1.500000"/>
		<path id="Vector" d="M5.41 10C5.41 7.46 7.46 5.41 10 5.41" stroke="#101828" stroke-opacity="1.000000" stroke-width="1.500000" stroke-linecap="round"/>
		<path id="Vector" d="M10 12.08C8.84 12.08 7.91 11.15 7.91 10C7.91 8.84 8.84 7.91 10 7.91C11.15 7.91 12.08 8.84 12.08 10C12.08 11.15 11.15 12.08 10 12.08Z" stroke="#101828" stroke-opacity="1.000000" stroke-width="1.500000"/>
	</g>
</svg>
