<svg width="20.000000" height="20.000000" viewBox="0 0 20 20" fill="none" xmlns="http://www.w3.org/2000/svg" xmlns:xlink="http://www.w3.org/1999/xlink">
	<desc>
			Created with Pixso.
	</desc>
	<defs>
		<clipPath id="clip46_606">
			<rect id="ion:water-outline" width="20.000000" height="20.000000" fill="white" fill-opacity="0"/>
		</clipPath>
	</defs>
	<rect id="ion:water-outline" width="20.000000" height="20.000000" fill="#FFFFFF" fill-opacity="0"/>
	<g clip-path="url(#clip46_606)">
		<path id="Vector" d="M10 18.12C6.54 18.12 4.37 15.95 4.37 12.5C4.37 8.79 8.4 3.79 9.64 2.34C9.68 2.29 9.74 2.25 9.8 2.22C9.86 2.19 9.93 2.18 10 2.18C10.06 2.18 10.13 2.19 10.19 2.22C10.25 2.25 10.31 2.29 10.35 2.34C11.59 3.79 15.62 8.79 15.62 12.5C15.62 15.95 13.45 18.12 10 18.12Z" stroke="#000000" stroke-opacity="1.000000" stroke-width="1.500000"/>
		<path id="Vector" d="M13.43 12.81C13.43 13.55 13.14 14.27 12.61 14.8C12.08 15.32 11.37 15.62 10.62 15.62" stroke="#000000" stroke-opacity="1.000000" stroke-width="1.500000" stroke-linejoin="round" stroke-linecap="round"/>
	</g>
</svg>
