<svg width="20.000000" height="20.000000" viewBox="0 0 20 20" fill="none" xmlns="http://www.w3.org/2000/svg" xmlns:xlink="http://www.w3.org/1999/xlink">
	<desc>
			Created with Pixso.
	</desc>
	<defs>
		<clipPath id="clip45_600">
			<rect id="mdi:gas" width="20.000000" height="20.000000" fill="white" fill-opacity="0"/>
		</clipPath>
	</defs>
	<rect id="mdi:gas" width="20.000000" height="20.000000" fill="#FFFFFF" fill-opacity="0"/>
	<g clip-path="url(#clip45_600)">
		<path id="Vector" d="M15.66 8.74C15.43 8.46 15.16 8.21 14.9 7.97C14.23 7.4 13.47 6.99 12.83 6.4C11.34 5.02 11.01 2.74 11.96 1C11.01 1.21 10.18 1.7 9.47 2.24C6.88 4.21 5.86 7.67 7.08 10.65C7.12 10.74 7.16 10.84 7.16 10.96C7.16 11.17 7.01 11.36 6.81 11.43C6.58 11.53 6.34 11.47 6.15 11.32C6.09 11.27 6.04 11.22 6.01 11.16C4.88 9.81 4.7 7.87 5.46 6.32C3.79 7.61 2.88 9.78 3.01 11.83C3.07 12.3 3.13 12.77 3.3 13.24C3.44 13.81 3.71 14.38 4.01 14.88C5.09 16.51 6.96 17.68 8.97 17.92C11.11 18.17 13.4 17.81 15.04 16.41C16.86 14.84 17.5 12.33 16.56 10.18L16.43 9.93C16.22 9.5 15.66 8.74 15.66 8.74ZM12.51 14.69C12.23 14.92 11.77 15.16 11.41 15.26C10.29 15.63 9.17 15.11 8.51 14.48C9.7 14.22 10.41 13.39 10.62 12.55C10.79 11.79 10.47 11.17 10.34 10.44C10.22 9.74 10.24 9.15 10.51 8.49C10.7 8.85 10.9 9.21 11.14 9.5C11.91 10.44 13.12 10.86 13.38 12.14C13.42 12.27 13.44 12.4 13.44 12.55C13.47 13.32 13.11 14.17 12.51 14.69Z" fill="#101828" fill-opacity="1.000000" fill-rule="nonzero"/>
	</g>
</svg>
