<svg width="20.000000" height="20.000000" viewBox="0 0 20 20" fill="none" xmlns="http://www.w3.org/2000/svg" xmlns:xlink="http://www.w3.org/1999/xlink">
	<desc>
			Created with Pixso.
	</desc>
	<defs>
		<clipPath id="clip46_614">
			<rect id="streamline:microwave" width="20.000000" height="20.000000" fill="white" fill-opacity="0"/>
		</clipPath>
	</defs>
	<rect id="streamline:microwave" width="20.000000" height="20.000000" fill="#FFFFFF" fill-opacity="0"/>
	<g clip-path="url(#clip46_614)">
		<path id="Vector" d="M1.42 3.57C1.23 3.57 1.05 3.64 0.92 3.78C0.78 3.91 0.71 4.09 0.71 4.28L0.71 15.71C0.71 15.9 0.78 16.08 0.92 16.21C1.05 16.35 1.23 16.42 1.42 16.42L18.57 16.42C18.76 16.42 18.94 16.35 19.07 16.21C19.21 16.08 19.28 15.9 19.28 15.71L19.28 4.28C19.28 4.09 19.21 3.91 19.07 3.78C18.94 3.64 18.76 3.57 18.57 3.57L1.42 3.57Z" stroke="#101828" stroke-opacity="1.000000" stroke-width="1.400000" stroke-linejoin="round"/>
		<path id="Vector" d="M4.28 6.42C4.09 6.42 3.91 6.5 3.78 6.63C3.64 6.77 3.57 6.95 3.57 7.14L3.57 12.85C3.57 13.04 3.64 13.22 3.78 13.36C3.91 13.49 4.09 13.57 4.28 13.57L12.14 13.57C12.33 13.57 12.51 13.49 12.64 13.36C12.78 13.22 12.85 13.04 12.85 12.85L12.85 7.14C12.85 6.95 12.78 6.77 12.64 6.63C12.51 6.5 12.33 6.42 12.14 6.42L4.28 6.42ZM15.71 7.14L16.42 7.14M15.71 10L16.42 10" stroke="#101828" stroke-opacity="1.000000" stroke-width="1.400000" stroke-linejoin="round"/>
	</g>
</svg>
