<svg width="26" height="27" viewBox="0 0 26 27" fill="none" xmlns="http://www.w3.org/2000/svg">
<path d="M20.1667 12.1667H22.1667C22.6971 12.1667 23.2058 11.956 23.5809 11.5809C23.956 11.2058 24.1667 10.6971 24.1667 10.1667C24.1667 9.63623 23.956 9.12753 23.5809 8.75245C23.2058 8.37738 22.6971 8.16667 22.1667 8.16667H20.1667V14.8333M20.1667 20.1667V25.5H21.5C22.2072 25.5 22.8855 25.219 23.3856 24.719C23.8857 24.2189 24.1667 23.5406 24.1667 22.8333C24.1667 22.1261 23.8857 21.4478 23.3856 20.9477C22.8855 20.4476 22.2072 20.1667 21.5 20.1667H20.1667ZM1.5 4.16667C1.5 4.87391 1.78095 5.55219 2.28105 6.05229C2.78115 6.55238 3.45942 6.83333 4.16667 6.83333C4.87391 6.83333 5.55219 6.55238 6.05229 6.05229C6.55238 5.55219 6.83333 4.87391 6.83333 4.16667C6.83333 3.45942 6.55238 2.78115 6.05229 2.28105C5.55219 1.78095 4.87391 1.5 4.16667 1.5C3.45942 1.5 2.78115 1.78095 2.28105 2.28105C1.78095 2.78115 1.5 3.45942 1.5 4.16667Z" stroke="#101828" stroke-width="1.8" stroke-linecap="round" stroke-linejoin="round"/>
</svg>
