<svg width="20" height="18" viewBox="0 0 20 18" fill="none" xmlns="http://www.w3.org/2000/svg">
<g filter="url(#filter0_d_18_11573)">
<path d="M16.4749 4.025L16.4833 4.01667L13.3833 0.916667L12.4999 1.8L14.2583 3.55833C13.4749 3.85833 12.9166 4.60833 12.9166 5.5C12.9166 5.77359 12.9705 6.0445 13.0752 6.29726C13.1799 6.55002 13.3333 6.77968 13.5268 6.97314C13.9175 7.36384 14.4474 7.58333 14.9999 7.58333C15.2999 7.58333 15.5749 7.51667 15.8333 7.40833V13.4167C15.8333 13.6377 15.7455 13.8496 15.5892 14.0059C15.4329 14.1622 15.2209 14.25 14.9999 14.25C14.7789 14.25 14.5669 14.1622 14.4107 14.0059C14.2544 13.8496 14.1666 13.6377 14.1666 13.4167V9.66667C14.1666 9.22464 13.991 8.80072 13.6784 8.48816C13.3659 8.17559 12.9419 8 12.4999 8H11.6666V2.16667C11.6666 1.72464 11.491 1.30072 11.1784 0.988155C10.8659 0.675595 10.4419 0.5 9.99992 0.5H4.99992C4.55789 0.5 4.13397 0.675595 3.82141 0.988155C3.50885 1.30072 3.33325 1.72464 3.33325 2.16667V15.5H11.6666V9.25H12.9166V13.4167C12.9166 13.9692 13.1361 14.4991 13.5268 14.8898C13.9175 15.2805 14.4474 15.5 14.9999 15.5C15.2735 15.5 15.5444 15.4461 15.7972 15.3414C16.0499 15.2367 16.2796 15.0833 16.4731 14.8898C16.6665 14.6964 16.82 14.4667 16.9247 14.2139C17.0294 13.9612 17.0833 13.6903 17.0833 13.4167V5.5C17.0833 4.925 16.8499 4.4 16.4749 4.025ZM9.99992 9.25V13.8333H4.99992V8H9.99992V9.25ZM9.99992 6.33333H4.99992V2.16667H9.99992V6.33333ZM14.9999 6.33333C14.7789 6.33333 14.5669 6.24554 14.4107 6.08926C14.2544 5.93297 14.1666 5.72101 14.1666 5.5C14.1666 5.27899 14.2544 5.06702 14.4107 4.91074C14.5669 4.75446 14.7789 4.66667 14.9999 4.66667C15.2209 4.66667 15.4329 4.75446 15.5892 4.91074C15.7455 5.06702 15.8333 5.27899 15.8333 5.5C15.8333 5.72101 15.7455 5.93297 15.5892 6.08926C15.4329 6.24554 15.2209 6.33333 14.9999 6.33333Z" fill="#101828"/>
</g>
<defs>
<filter id="filter0_d_18_11573" x="-0.666748" y="0.5" width="21.75" height="23" filterUnits="userSpaceOnUse" color-interpolation-filters="sRGB">
<feFlood flood-opacity="0" result="BackgroundImageFix"/>
<feColorMatrix in="SourceAlpha" type="matrix" values="0 0 0 0 0 0 0 0 0 0 0 0 0 0 0 0 0 0 127 0" result="hardAlpha"/>
<feOffset dy="4"/>
<feGaussianBlur stdDeviation="2"/>
<feComposite in2="hardAlpha" operator="out"/>
<feColorMatrix type="matrix" values="0 0 0 0 0 0 0 0 0 0 0 0 0 0 0 0 0 0 0.25 0"/>
<feBlend mode="normal" in2="BackgroundImageFix" result="effect1_dropShadow_18_11573"/>
<feBlend mode="normal" in="SourceGraphic" in2="effect1_dropShadow_18_11573" result="shape"/>
</filter>
</defs>
</svg>
